<?xml version="1.0" encoding="UTF-8" standalone="no"?>
<!DOCTYPE svg PUBLIC "-//W3C//DTD SVG 20010904//EN"
              "http://www.w3.org/TR/2001/REC-SVG-20010904/DTD/svg10.dtd">

<svg xmlns="http://www.w3.org/2000/svg"
     width="12in" height="12in"
     viewBox="0 0 1080 1080">
  <path id="Unnamed"
        fill="none" stroke="black" stroke-width="1"
        d="M 547.00,669.00
           C 626.00,670.00 678.00,602.00 678.00,540.00
             678.00,478.00 627.00,401.00 545.00,402.00
             463.00,403.00 410.00,471.00 411.00,539.00
             412.00,607.00 468.00,668.00 547.00,669.00 Z
           M 798.00,458.00
           C 798.00,458.00 778.00,409.00 778.00,409.00
             778.00,409.00 829.00,365.00 829.00,365.00
             829.00,365.00 719.00,255.00 719.00,255.00
             719.00,255.00 674.00,302.00 674.00,302.00
             674.00,302.00 621.00,282.00 621.00,282.00
             621.00,282.00 621.00,217.00 621.00,217.00
             621.00,217.00 472.00,213.00 472.00,213.00
             472.00,213.00 467.00,277.00 467.00,277.00
             467.00,277.00 417.00,305.00 417.00,305.00
             417.00,305.00 369.00,259.00 369.00,259.00
             369.00,259.00 264.00,363.00 264.00,363.00
             264.00,363.00 311.00,408.00 311.00,408.00
             311.00,408.00 291.00,460.00 291.00,460.00
             291.00,460.00 222.00,464.00 222.00,464.00
             222.00,464.00 222.00,611.00 222.00,611.00
             222.00,611.00 288.00,611.00 288.00,611.00
             288.00,611.00 309.00,662.00 309.00,662.00
             309.00,662.00 266.00,709.00 266.00,709.00
             266.00,709.00 372.00,817.00 372.00,817.00
             372.00,817.00 418.00,771.00 418.00,771.00
             418.00,771.00 469.00,789.00 469.00,789.00
             469.00,789.00 469.00,855.00 469.00,855.00
             469.00,855.00 621.00,852.00 621.00,852.00
             621.00,852.00 621.00,792.00 621.00,792.00
             621.00,792.00 671.00,769.00 671.00,769.00
             671.00,769.00 717.00,812.00 717.00,812.00
             717.00,812.00 823.00,711.00 823.00,711.00
             823.00,711.00 780.00,665.00 780.00,665.00
             780.00,665.00 801.00,613.00 801.00,613.00
             801.00,613.00 865.00,610.00 865.00,610.00
             865.00,610.00 866.00,459.00 866.00,459.00
             866.00,459.00 798.00,458.00 798.00,458.00 Z
           M 543.00,1036.00
           C 218.00,1036.00 39.00,760.00 43.00,536.00
             47.00,312.00 213.00,35.00 555.00,35.00
             897.00,35.00 1050.00,344.00 1046.00,559.00
             1042.00,774.00 884.00,907.00 884.00,907.00
             884.00,907.00 886.00,797.00 886.00,797.00
             886.00,797.00 869.00,928.00 869.00,928.00
             869.00,928.00 1011.00,878.00 1011.00,878.00" />
</svg>
